<svg width="124" height="31" viewBox="0 0 124 31" fill="none" xmlns="http://www.w3.org/2000/svg">
<path d="M2.576 24.288C1.85067 24.288 1.296 24.0853 0.912 23.68C0.528 23.2747 0.336 22.7093 0.336 21.984V3.456C0.336 2.73067 0.538667 2.16533 0.944 1.76C1.37067 1.35467 1.94667 1.152 2.672 1.152C3.312 1.152 3.81333 1.28 4.176 1.536C4.56 1.77067 4.912 2.18667 5.232 2.784L12.624 16.288H11.536L18.928 2.784C19.248 2.18667 19.5893 1.77067 19.952 1.536C20.336 1.28 20.8373 1.152 21.456 1.152C22.1813 1.152 22.736 1.35467 23.12 1.76C23.5253 2.16533 23.728 2.73067 23.728 3.456V21.984C23.728 22.7093 23.536 23.2747 23.152 23.68C22.768 24.0853 22.2133 24.288 21.488 24.288C20.7627 24.288 20.1973 24.0853 19.792 23.68C19.408 23.2747 19.216 22.7093 19.216 21.984V9.024H19.92L13.968 19.68C13.712 20.0853 13.4347 20.3947 13.136 20.608C12.8587 20.8 12.4853 20.896 12.016 20.896C11.5467 20.896 11.1627 20.7893 10.864 20.576C10.5653 20.3627 10.2987 20.064 10.064 19.68L4.048 8.992H4.816V21.984C4.816 22.7093 4.624 23.2747 4.24 23.68C3.87733 24.0853 3.32267 24.288 2.576 24.288ZM36.0473 24.352C34.1913 24.352 32.5913 24.0213 31.2473 23.36C29.9246 22.6773 28.9006 21.728 28.1753 20.512C27.4713 19.2747 27.1193 17.824 27.1193 16.16C27.1193 14.5387 27.4606 13.12 28.1432 11.904C28.8259 10.6667 29.7753 9.70667 30.9913 9.024C32.2286 8.32 33.6259 7.968 35.1833 7.968C36.3139 7.968 37.3379 8.16 38.2553 8.544C39.1726 8.90667 39.9619 9.44 40.6233 10.144C41.2846 10.8267 41.7859 11.6693 42.1273 12.672C42.4686 13.6533 42.6393 14.752 42.6393 15.968C42.6393 16.3733 42.5113 16.6827 42.2553 16.896C41.9993 17.088 41.6259 17.184 41.1353 17.184H31.0873V14.688H39.1513L38.6393 15.136C38.6393 14.2613 38.5113 13.536 38.2553 12.96C37.9993 12.3627 37.6259 11.9147 37.1353 11.616C36.6659 11.3173 36.0793 11.168 35.3753 11.168C34.5859 11.168 33.9139 11.3493 33.3593 11.712C32.8046 12.0747 32.3779 12.5973 32.0793 13.28C31.7806 13.9627 31.6313 14.784 31.6313 15.744V16C31.6313 17.6213 32.0046 18.816 32.7513 19.584C33.5193 20.352 34.6499 20.736 36.1433 20.736C36.6553 20.736 37.2419 20.672 37.9033 20.544C38.5646 20.416 39.1833 20.2133 39.7593 19.936C40.2499 19.7013 40.6873 19.6267 41.0713 19.712C41.4553 19.776 41.7539 19.9467 41.9673 20.224C42.1806 20.5013 42.2979 20.8213 42.3193 21.184C42.3619 21.5467 42.2873 21.9093 42.0953 22.272C41.9033 22.6133 41.5833 22.9013 41.1353 23.136C40.4099 23.5413 39.5886 23.84 38.6713 24.032C37.7753 24.2453 36.9006 24.352 36.0473 24.352ZM51.5618 24.352C50.1964 24.352 48.9911 24.0213 47.9458 23.36C46.9218 22.6987 46.1218 21.7493 45.5458 20.512C44.9698 19.2747 44.6818 17.8133 44.6818 16.128C44.6818 14.4427 44.9698 12.992 45.5458 11.776C46.1218 10.56 46.9218 9.62133 47.9458 8.96C48.9911 8.29867 50.1964 7.968 51.5618 7.968C52.7991 7.968 53.8871 8.26667 54.8258 8.864C55.7858 9.46133 56.4364 10.24 56.7778 11.2H56.4258V3.616C56.4258 2.80533 56.6284 2.19733 57.0338 1.792C57.4391 1.36533 58.0364 1.152 58.8258 1.152C59.5938 1.152 60.1911 1.36533 60.6178 1.792C61.0444 2.19733 61.2578 2.80533 61.2578 3.616V21.824C61.2578 22.6133 61.0444 23.2213 60.6178 23.648C60.2124 24.0747 59.6258 24.288 58.8578 24.288C58.0898 24.288 57.4924 24.0747 57.0658 23.648C56.6604 23.2213 56.4578 22.6133 56.4578 21.824V19.648L56.8098 20.896C56.5111 21.9413 55.8711 22.784 54.8898 23.424C53.9298 24.0427 52.8204 24.352 51.5618 24.352ZM53.0017 20.736C53.7058 20.736 54.3138 20.5653 54.8258 20.224C55.3378 19.8827 55.7431 19.3813 56.0418 18.72C56.3404 18.0373 56.4898 17.1733 56.4898 16.128C56.4898 14.5707 56.1698 13.4293 55.5298 12.704C54.8898 11.9573 54.0471 11.584 53.0017 11.584C52.3191 11.584 51.7111 11.744 51.1778 12.064C50.6658 12.384 50.2604 12.8853 49.9618 13.568C49.6844 14.2293 49.5458 15.0827 49.5458 16.128C49.5458 17.6853 49.8658 18.848 50.5058 19.616C51.1458 20.3627 51.9778 20.736 53.0017 20.736ZM67.413 24.256C66.6237 24.256 66.0157 24.032 65.589 23.584C65.1837 23.1147 64.981 22.464 64.981 21.632V10.688C64.981 9.83467 65.1837 9.184 65.589 8.736C66.0157 8.26667 66.6237 8.032 67.413 8.032C68.181 8.032 68.7677 8.26667 69.173 8.736C69.5997 9.184 69.813 9.83467 69.813 10.688V21.632C69.813 22.464 69.6103 23.1147 69.205 23.584C68.7997 24.032 68.2023 24.256 67.413 24.256ZM67.413 5.408C66.517 5.408 65.8237 5.20533 65.333 4.8C64.8637 4.37333 64.629 3.776 64.629 3.008C64.629 2.21867 64.8637 1.62133 65.333 1.216C65.8237 0.789332 66.517 0.575998 67.413 0.575998C68.309 0.575998 68.9917 0.789332 69.461 1.216C69.9303 1.62133 70.165 2.21867 70.165 3.008C70.165 3.776 69.9303 4.37333 69.461 4.8C68.9917 5.20533 68.309 5.408 67.413 5.408ZM82.0235 24.352C81.1275 24.352 80.2102 24.2773 79.2715 24.128C78.3542 24 77.4688 23.808 76.6155 23.552C75.7835 23.296 75.0368 22.976 74.3755 22.592C73.9062 22.336 73.5755 22.0053 73.3835 21.6C73.1915 21.1733 73.1168 20.7467 73.1595 20.32C73.2235 19.8933 73.3835 19.52 73.6395 19.2C73.9168 18.8587 74.2582 18.6453 74.6635 18.56C75.0902 18.4533 75.5595 18.528 76.0715 18.784C76.9462 19.2747 77.8955 19.6373 78.9195 19.872C79.9648 20.1067 80.9995 20.224 82.0235 20.224C83.5808 20.224 84.6902 19.9893 85.3515 19.52C86.0128 19.0293 86.3435 18.4213 86.3435 17.696C86.3435 17.0773 86.1088 16.5867 85.6395 16.224C85.1702 15.8613 84.3488 15.552 83.1755 15.296L79.5595 14.528C77.5115 14.1013 75.9862 13.376 74.9835 12.352C74.0022 11.3067 73.5115 9.94133 73.5115 8.256C73.5115 7.18933 73.7355 6.21867 74.1835 5.344C74.6315 4.46933 75.2608 3.712 76.0715 3.072C76.8822 2.432 77.8422 1.94133 78.9515 1.6C80.0822 1.25867 81.3195 1.088 82.6635 1.088C83.8582 1.088 85.0315 1.23733 86.1835 1.536C87.3355 1.81333 88.3488 2.22933 89.2235 2.784C89.6502 3.04 89.9382 3.37067 90.0875 3.776C90.2582 4.16 90.3115 4.55467 90.2475 4.96C90.2048 5.344 90.0448 5.68533 89.7675 5.984C89.5115 6.28267 89.1808 6.47467 88.7755 6.56C88.3702 6.64533 87.8795 6.54933 87.3035 6.272C86.5995 5.90933 85.8528 5.64267 85.0635 5.472C84.2742 5.30133 83.4635 5.216 82.6315 5.216C81.7355 5.216 80.9675 5.33333 80.3275 5.568C79.7088 5.80267 79.2288 6.13333 78.8875 6.56C78.5675 6.98667 78.4075 7.47733 78.4075 8.032C78.4075 8.65067 78.6315 9.152 79.0795 9.536C79.5275 9.92 80.3062 10.2293 81.4155 10.464L85.0315 11.232C87.1222 11.68 88.6795 12.4053 89.7035 13.408C90.7275 14.3893 91.2395 15.6907 91.2395 17.312C91.2395 18.3787 91.0262 19.3493 90.5995 20.224C90.1728 21.0773 89.5542 21.8133 88.7435 22.432C87.9328 23.0507 86.9622 23.5307 85.8315 23.872C84.7008 24.192 83.4315 24.352 82.0235 24.352ZM98.0503 30.048C97.4956 30.048 97.0369 29.8987 96.6743 29.6C96.3116 29.3013 96.0983 28.9067 96.0343 28.416C95.9703 27.9467 96.0556 27.4453 96.2903 26.912L98.4343 22.176V24.16L92.7703 11.168C92.5569 10.6133 92.4823 10.1013 92.5463 9.632C92.6316 9.14133 92.8663 8.75733 93.2503 8.48C93.6556 8.18133 94.2103 8.032 94.9143 8.032C95.4903 8.032 95.9489 8.17067 96.2903 8.448C96.6529 8.704 96.9836 9.20533 97.2823 9.952L101.058 19.552H100.034L103.938 9.92C104.237 9.19467 104.568 8.704 104.93 8.448C105.314 8.17067 105.826 8.032 106.466 8.032C107.021 8.032 107.458 8.18133 107.778 8.48C108.12 8.75733 108.322 9.13067 108.386 9.6C108.472 10.0693 108.386 10.5813 108.13 11.136L100.61 28.192C100.29 28.9173 99.9276 29.408 99.5223 29.664C99.1383 29.92 98.6476 30.048 98.0503 30.048ZM116.528 24.352C115.59 24.352 114.619 24.2667 113.616 24.096C112.635 23.9253 111.739 23.6373 110.928 23.232C110.502 23.0187 110.192 22.752 110 22.432C109.83 22.0907 109.755 21.7493 109.776 21.408C109.798 21.0667 109.904 20.7573 110.096 20.48C110.31 20.2027 110.576 20.0213 110.896 19.936C111.238 19.8293 111.611 19.8613 112.016 20.032C112.891 20.3947 113.691 20.6507 114.416 20.8C115.142 20.9493 115.856 21.024 116.56 21.024C117.478 21.024 118.139 20.8853 118.544 20.608C118.971 20.3093 119.184 19.9253 119.184 19.456C119.184 19.0293 119.046 18.7093 118.768 18.496C118.491 18.2827 118.086 18.1333 117.552 18.048L114.192 17.44C112.87 17.2053 111.846 16.7253 111.12 16C110.416 15.2533 110.064 14.304 110.064 13.152C110.064 12.0853 110.363 11.168 110.96 10.4C111.558 9.61067 112.379 9.01333 113.424 8.608C114.491 8.18133 115.696 7.968 117.04 7.968C118 7.968 118.886 8.05333 119.696 8.224C120.507 8.39467 121.286 8.672 122.032 9.056C122.416 9.248 122.683 9.504 122.832 9.824C123.003 10.144 123.056 10.4747 122.992 10.816C122.95 11.1573 122.822 11.4667 122.608 11.744C122.395 12.0213 122.118 12.2027 121.776 12.288C121.456 12.3733 121.083 12.3307 120.656 12.16C119.974 11.84 119.344 11.616 118.768 11.488C118.192 11.3387 117.638 11.264 117.104 11.264C116.144 11.264 115.451 11.424 115.024 11.744C114.598 12.0427 114.384 12.4267 114.384 12.896C114.384 13.2587 114.502 13.568 114.736 13.824C114.992 14.0587 115.376 14.2187 115.888 14.304L119.248 14.912C120.635 15.1467 121.691 15.616 122.416 16.32C123.142 17.0027 123.504 17.9413 123.504 19.136C123.504 20.7573 122.864 22.0373 121.584 22.976C120.326 23.8933 118.64 24.352 116.528 24.352Z" fill="black"/>
</svg>
