<svg width="100" height="100" viewBox="0 0 100 100" fill="none" xmlns="http://www.w3.org/2000/svg">
<path d="M50 84.9721L18.75 53.7221C14.606 49.5781 12.278 43.9576 12.278 38.0971C12.278 32.2366 14.606 26.6161 18.75 22.4721C22.894 18.3281 28.5145 16 34.375 16C40.2356 16 45.856 18.3281 50 22.4721C54.144 18.3281 59.7645 16 65.625 16C71.4856 16 77.106 18.3281 81.25 22.4721C85.394 26.6161 87.7221 32.2366 87.7221 38.0971C87.7221 43.9576 85.394 49.5781 81.25 53.7221L50 84.9721Z" stroke="#3B82F6" stroke-width="6.25"/>
<path d="M20 53.7221H37.5L43.75 41.2221L50 66.2221L56.25 34.9721L62.5 53.7221H79.5" stroke="#3B82F6" stroke-width="4.6875" stroke-linecap="round" stroke-linejoin="round"/>
</svg>
